<mxfile host="app.diagrams.net" modified="2024-06-22T10:53:11.422Z" agent="Mozilla/5.0 (Windows NT 10.0; Win64; x64) AppleWebKit/537.36 (KHTML, like Gecko) Chrome/126.0.0.0 Safari/537.36 Edg/126.0.0.0" version="24.5.1" etag="ixoXr5UuIG122x-q2R4p" type="github">
  <diagram name="第 1 页" id="yZ_zDK_zK--NO1taBNLh">
    <mxGraphModel>
      <root>
        <mxCell id="0" />
        <mxCell id="1" parent="0" />
      </root>
    </mxGraphModel>
  </diagram>
</mxfile>
